Patient4_TMGait_0pt8_01_left_24_EMG.mot
version=1
nRows=36
nColumns=33
inDegrees=no
endheader
time	1LAddLong	2LGlutMax	3LGlutMed	4LIliopsoas	5LSemiMemb	6LBicFemLong	7LRecFem	8LVastMed	9LVastLat	10LGasMed	11LTibAnt	12lTibPost	13LPeroneusLong	14LSol	15LExtDigLong	16LFlexDigLong	17RAddLong	18RGlutMax	19RGlutMed	20RIliopsoas	21RSemiMemb	22RBicFemLong	23RRecFem	24RVastMed	25RVastLat	26RGasMed	27RTibAnt	28RTibPost	29RPeroneusLong	30RSol	31RExtDigLong	32RFlexDigLong
27.405	0.00473	0.95612	-0.029755	0.026398	0.02533	0.016022	-0.11063	0.000763	0.23712	-0.007019	0.032654	-0.008087	0.086975	-0.048981	-0.010223	-0.007324	0.010223	-0.50461	0.56992	-0.050507	-0.025024	-0.021362	-0.41718	0.21149	0.30762	-0.013275	0.12177	-0.016022	-0.32608	-0.048218	-0.004425	-0.012054
27.406	0.00824	0.89279	0.028687	0.012207	0.040283	0.018005	-0.14908	-0.00351	0.23163	0.010986	0.015717	-0.008087	0.061188	-0.045013	-0.014496	0.006866	0.014038	-0.55145	1.172	0.1294	-0.027618	-0.022125	-0.31342	0.086975	0.15228	-0.010986	0.049286	-0.012054	0.044708	-0.12985	-0.001526	-0.009613
27.407	0.027161	0.86609	-0.030212	0.000458	0.022278	0.052948	-0.13596	-0.007782	0.23483	-0.003815	0.035858	-0.006866	0.052338	-0.050507	0.006256	0.008392	0.007019	-0.49072	0.72754	0.20828	-0.028076	-0.041199	-0.46921	0.034485	0.18387	-0.012817	-0.12161	-0.010986	1.0188	-0.099182	-0.002136	-0.007019
27.408	0.015411	0.82825	-0.040588	0.014954	-0.007477	0.066986	-0.14252	-0.001526	0.23499	-0.023041	0.066681	-0.007172	0.031586	-0.05661	0.077515	-0.000763	0.008392	-0.49988	0.36636	0.039063	-0.02243	-0.044861	-0.4068	0.072632	0.27985	-0.002899	-0.12375	-0.004578	1.2448	-0.049896	-0.001526	-0.013275
27.409	0.023804	0.80444	-0.061035	0.001831	-0.002747	0.063171	-0.15045	-0.011749	0.23636	-0.033722	0.1152	-0.004578	-0.012665	-0.067139	0.010071	-0.002136	0.010071	-0.48279	-0.058899	-0.059357	-0.049591	-0.040894	-0.3392	0.039368	0.14069	-0.010223	-0.008698	-0.011292	1.2321	-0.002136	0.00473	-0.000763
27.41	0.014496	0.77591	0.00824	-0.006866	-0.000458	0.075073	-0.1294	-0.00412	0.22858	-0.050201	0.14069	-0.004578	0.000153	-0.056305	-0.009003	-0.000916	0.003662	-0.53711	-0.2713	-0.033417	-0.046692	0.009766	-0.31952	-0.012054	0.088348	-0.010681	-0.097046	-0.008698	-0.061035	-0.15076	-0.000458	0.005798
27.411	0.009003	0.77331	0.041809	-0.003052	-0.02655	0.082092	-0.15533	-0.002747	0.23254	-0.054779	0.05722	-0.007782	0.045166	-0.043793	-0.005035	0.00412	0.01236	-0.52704	0.045319	-0.057678	-0.033264	0.062866	-0.27435	-0.030212	0.072327	-0.005035	-0.065308	-0.005798	-2.1379	-0.21118	-0.001526	0.000763
27.412	0.015106	0.76828	0.01358	-0.014038	-0.015564	0.072174	-0.15778	-0.001221	0.23254	-0.048828	-0.1236	-0.008392	0.059662	-0.036469	-0.019684	0.011597	0.012054	-0.63263	-0.13092	-0.095673	-0.015106	0.061951	-0.28961	-0.028992	0.049591	-0.013123	0.024414	-0.006256	-1.752	-0.042572	0.001221	-0.009003
27.413	0.013275	0.79346	-0.045929	0.034485	-0.045166	0.059662	-0.16708	0.007935	0.22095	-0.028076	-0.12238	-0.008392	0.024567	-0.072632	-0.021973	-0.011292	0.013733	-0.65643	-0.26443	-0.063782	-0.014648	0.012054	-0.26321	-0.002441	0.048981	-0.014954	0.029297	-0.002289	-1.7299	0.031128	-0.001068	-0.010834
27.414	0.006714	0.83084	-0.066986	0.01358	-0.020905	0.075531	-0.16495	0.004425	0.20966	-0.047607	-0.087891	-0.005341	0.034485	-0.052185	-0.081024	-0.014191	0.011444	-0.68771	0.18188	0.022125	0.018005	0.009003	-0.22659	-0.030518	0.031128	-0.005188	0.15121	-0.004883	-0.29663	-0.020447	-0.003052	-0.008545
27.415	0.00473	0.81528	-0.057373	-0.005341	-0.023193	0.094452	-0.14572	0.001373	0.20859	-0.027771	-0.08194	-0.008392	0.047913	-0.028381	-0.088196	0.000763	0.012207	-0.6572	0.4335	0.15213	0.057983	0.005188	-0.1944	-0.11154	0.030518	-0.011749	0.17456	-0.005951	-0.19745	0.072479	-0.002136	-0.020599
27.416	0.011597	0.82459	-0.050201	0.011749	-0.081177	0.037231	-0.16022	-0.005951	0.21637	-0.014954	-0.064087	-0.012817	0.041199	-0.045776	-0.061035	-0.014038	0.019836	-0.70343	0.31555	0.16556	0.049133	0.032501	-0.20477	-0.14725	0.000153	-0.012817	0.12405	0.000763	-0.47562	0.078125	0.007782	-0.017548
27.417	0.018158	0.8606	-0.082703	0.007019	-0.008392	0.026245	-0.14465	0.001221	0.20233	-0.04425	-0.003815	-0.008392	0.044708	-0.035553	-0.04425	-0.007629	0.010834	-0.72037	0.30502	0.11871	-0.1474	0.084381	-0.22522	-0.058136	0.004883	-0.005646	0.058136	-0.001984	0.47669	-0.019989	0.000458	-0.020905
27.418	0.026855	0.84335	-0.11154	-0.014496	0.031891	0.006256	-0.17044	0.001068	0.21469	-0.071259	0.033569	-0.010223	0.068359	-0.032806	0.026093	0.005188	0.010529	-0.6929	0.019379	0.062866	-0.10376	0.064392	-0.21988	-0.039063	0.038605	-0.003052	-0.029449	-0.006409	1.7361	-0.034332	-0.001068	-0.017395
27.419	0.03006	0.84152	-0.093689	-0.02533	0.036316	-0.018005	-0.16525	0.000458	0.21072	-0.056763	0.079498	-0.01236	0.060577	-0.038452	0.033417	-0.002289	0.011444	-0.69611	0.18753	0.026398	-0.011902	-0.001068	-0.18387	0.050201	0.06012	0.003967	-0.081635	-0.000153	0.99258	0.000763	-0.004578	-0.024414
27.42	0.021973	0.83252	-0.082703	0.007782	0.000916	-0.010223	-0.16098	-0.00824	0.19562	-0.053711	0.07309	-0.013885	0.043182	-0.045166	-0.042877	-0.005646	0.02182	-0.63736	0.33585	0.11231	-0.052338	-0.029297	0.036926	-0.007019	-0.02121	0.003967	-0.19745	-0.004425	0.61844	0.090332	-0.001068	-0.015869
27.421	0.026855	0.85327	-0.10269	0.003204	-0.02533	0.011597	-0.16739	-0.016327	0.18753	-0.029602	0.010529	-0.011902	0.019989	-0.048828	0.2449	-0.015717	0.025635	-0.62515	0.30853	0.077972	-0.075226	-0.018616	0.14816	-0.039368	-0.092621	-0.002441	-0.1181	-0.000305	0.41229	0.071411	-0.000916	-0.006409
27.422	0.028839	0.8226	-0.17975	0.002747	-0.010681	0.034637	-0.15945	-0.006256	0.17624	-0.036774	-0.034332	-0.014648	0.058289	-0.064087	0.065308	-0.016479	0.000153	-0.56656	0.15396	0.038757	-0.010681	0.027313	0.15121	-0.041656	-0.10178	-0.006561	-0.013733	0.008087	-0.10178	-0.04837	0.000153	-0.011902
27.423	0.026855	0.811	-0.25772	-0.003967	0	0.027771	-0.16525	-0.005798	0.18631	-0.033722	0.025177	-0.015106	0.044403	-0.053558	0.009613	-0.006561	-0.009918	-0.54825	0.21011	0.005951	-0.030212	0.0383	0.28519	-0.064545	-0.18875	-0.003052	0.051575	-0.005798	0.027161	-0.11841	-0.00061	-0.006714
27.424	0.020142	0.79208	-0.13138	-0.022583	0.007629	0.056305	-0.16327	-0.006256	0.1593	-0.044861	0.15289	-0.00885	0.06897	-0.052338	-0.046082	-0.00885	-0.00824	-0.49286	0.068512	0.009918	-0.030975	0.031281	-0.037231	-0.085907	-0.16296	-0.005188	0.097351	-0.000458	0.014954	-0.098724	0	-0.019684
27.425	0.019531	0.77835	0.069427	-0.009155	0.019379	0.078278	-0.16586	-0.002289	0.15228	-0.038452	0.22598	-0.015564	0.026855	-0.063629	-0.035858	0.002441	-0.02243	-0.48202	-0.16449	0.032043	-0.024719	0.072479	-0.46967	-0.043182	-0.13901	-0.011139	-0.095215	-0.00473	0.066223	-0.095825	-0.000305	-0.010681
27.426	0.016327	0.71991	0.12054	-0.001373	-0.001678	0.15549	-0.1709	-0.001526	0.14496	-0.037842	0.14145	-0.011749	-0.054016	-0.058899	-0.024719	-0.008392	-0.023041	-0.4921	0.067902	-0.030212	-0.035095	0.0383	-0.47211	0.015106	-0.063934	-0.007172	-0.11673	-0.003815	0.032196	-0.13367	-0.00412	-0.01236
27.427	0.020142	0.64774	0.085449	0.007782	-0.02533	0.15381	-0.16235	0.001678	0.15564	-0.046844	-0.042725	-0.012665	-0.000763	-0.057983	-0.003967	-0.00885	0	-0.47745	-0.016632	-0.064392	-0.042725	0.005188	-0.54199	-0.055389	0.12924	-0.021667	-0.082092	-0.001526	0.074005	-0.21332	-0.00061	-0.013123
27.428	0.011902	0.61066	-0.056763	0.017853	-0.073853	0.10788	-0.16312	0.002136	0.14618	-0.064392	-0.11627	-0.016327	0.007935	-0.078125	-0.016785	0.007019	-0.00061	-0.45136	-0.24902	-0.12741	-0.053558	-0.003357	-0.72083	-0.023041	0.24216	-0.010834	-0.039978	-0.000458	0.095062	-0.16922	0.002899	-0.015869
27.429	-0.047607	0.56763	-0.16922	0.005951	-0.028076	0.04303	-0.15686	0.003815	0.13443	-0.06546	-0.098724	-0.02182	-0.00412	-0.080566	-0.039673	0.005035	0.012512	-0.45395	0.26123	-0.24323	-0.058289	-0.016022	-0.52338	-0.049133	0.28259	-0.017242	0.063171	-0.001678	-0.014343	-0.21194	-0.004425	-0.017548
27.43	0.13702	0.54138	-0.21103	0.011902	0.006104	0.040588	-0.16266	0.005951	0.12451	-0.053711	-0.05127	-0.018158	0.018311	-0.050964	-0.02533	-0.011292	0.020294	-0.40695	0.35141	-0.25909	-0.065155	-0.010376	-0.47516	0.01297	0.21118	-0.014038	0.03418	-0.010223	-0.096893	-0.020142	0.000458	-0.014038
27.431	0.051575	0.54001	-0.16113	0.01358	0.027313	0.006561	-0.15579	-0.007782	0.12222	-0.02533	-0.009918	-0.018005	0.021057	-0.059662	-0.002899	-0.003204	0.014191	-0.37293	0.44571	-0.15671	-0.055084	0.001068	-0.40573	0.020294	0.14999	-0.009918	0.039978	-0.00412	-0.12894	0.54184	-0.000916	-0.009308
27.432	-0.009003	0.48843	-0.10727	0.014038	0.063019	-0.027924	-0.15778	-0.007629	0.11902	-0.018921	-0.009613	-0.017395	0.035706	-0.041351	0.010223	-0.001526	0.016479	-0.39093	0.47638	0.02655	-0.063324	-0.007782	-0.36392	-0.055847	0.071564	-0.003357	0.20706	-0.007782	-0.12161	0.7161	-0.001373	-0.0177
27.433	0.00946	0.46997	0.018921	0.013275	0.043793	-0.008087	-0.13092	-0.001221	0.11597	-0.015564	-0.002289	-0.019531	0.038147	-0.06073	0.007782	0.008087	0.012817	-0.35233	0.20996	0.13962	-0.056458	-0.007629	-0.3743	-0.042114	0.1059	-0.002747	0.26398	0.000305	-0.10346	0.5452	-0.000458	-0.014343
27.434	0.010681	0.41351	-0.000458	0.006104	-0.054016	0.071564	-0.14587	0.010071	0.10361	-0.028229	0.006409	-0.022736	-0.004425	-0.089417	0.009766	0.01358	0.00824	-0.31265	0.21042	0.10407	-0.063629	-0.003357	-0.29175	-0.020142	0.09964	-0.003815	0.21332	-0.001068	-0.12817	0.038605	0.001526	-0.010376
27.435	0.013275	0.31326	-0.018005	0.006866	-0.093079	0.09552	-0.1236	-0.004578	0.092926	-0.055237	0.009155	-0.018616	0.11231	-0.074615	0.014496	0.003052	0.012512	-0.3894	0.008392	-0.006714	-0.064392	0.002747	-0.24811	-0.043182	0.095825	-0.007324	0.13718	-0.005646	0.030823	-0.40695	0.003052	-0.018158
27.436	0.002594	0.31693	0.17624	0.020294	-0.13763	0.10117	-0.11963	0.00061	0.086823	-0.057373	0.027008	-0.024872	0.045166	-0.079651	0.000458	0.008698	0.016327	-0.37552	0.35477	-0.03479	-0.072937	-0.009003	-0.14252	-0.053558	0.051117	-0.010376	-0.24231	-0.000305	0.5574	-0.48675	0.001831	-0.015259
27.437	0.000916	0.26413	0.24506	-0.007324	-0.13351	0.082245	-0.12314	0.005341	0.080719	-0.030518	0.034485	-0.025177	0.061798	-0.069427	0.022125	-0.003967	0.014038	-0.48035	0.038452	0.068207	-0.074463	0.005188	-0.19852	-0.021667	0.058441	-0.009918	0.063934	-0.003815	1.0872	-0.345	0.001373	-0.012665
27.438	0.000458	0.22079	0.015717	0.001373	0.058289	0.079041	-0.12405	-0.000916	0.074921	-0.027924	0.024719	-0.023346	-0.024414	-0.062408	0.13382	0.014496	0.009003	-0.3772	0.18478	0.1651	-0.07309	0.010223	-0.24246	0.02594	0.089111	-0.014343	0.44922	-0.001678	0.12131	-0.42969	0.002289	-0.012665
27.439	-0.00946	0.21805	-0.080414	0.00473	0.1059	0.15656	-0.11032	0.005646	0.062866	-0.018616	-0.050354	-0.03067	-0.023651	-0.074463	0.10819	0.010376	0.013275	-0.3212	-0.048523	0.14191	-0.068207	-0.000916	-0.36163	-0.03006	0.077362	-0.014038	0.62653	-0.00061	-0.40253	-0.23453	-0.003052	-0.009613
27.44	0.010681	0.20264	-0.12238	0.000305	-0.002136	0.1619	-0.11246	0.00061	0.061798	-0.021515	-0.11948	-0.026703	0.040588	-0.089417	-0.020447	0.011597	0.006561	-0.37338	-0.30868	0.016174	-0.067444	0.014496	-0.43503	-0.098877	0.040588	-0.006104	0.57983	-0.003204	-0.92163	-0.053711	-0.001678	-0.005188
